<?xml version="1.0" encoding="utf-8"?>
<!-- Generator: Adobe Illustrator 19.0.0, SVG Export Plug-In . SVG Version: 6.00 Build 0)  -->
<svg version="1.1" id="Layer_1" xmlns="http://www.w3.org/2000/svg" xmlns:xlink="http://www.w3.org/1999/xlink" x="0px" y="0px"
	 viewBox="0 0 209.8 41.6" style="enable-background:new 0 0 209.8 41.6;" xml:space="preserve">
<style type="text/css">
	.st0{fill:#323333;}
</style>
<g id="XMLID_21_">
	<g id="XMLID_15_">
		<polygon id="XMLID_27_" class="st0" points="22.3,39.2 20.2,41.2 0.9,19.9 21.8,1 23.7,3.1 5,20.1 		"/>
	</g>
	<g id="XMLID_17_">
		<polygon id="XMLID_25_" class="st0" points="26.1,35.8 24,37.7 8.2,20.2 25.2,4.8 27.2,6.9 12.2,20.4 		"/>
	</g>
	<g id="XMLID_19_">
		<polygon id="XMLID_28_" class="st0" points="29.9,32.4 27.8,34.3 15.4,20.6 28.7,8.6 30.6,10.7 19.5,20.8 		"/>
	</g>
	<circle id="XMLID_14_" class="st0" cx="33.1" cy="21.4" r="7.7"/>
</g>
<path id="XMLID_23_" class="st0" d="M56.5,28.1c-0.6,0.3-2,0.6-3.8,0.6c-5.1,0-7.8-3.2-7.8-7.4c0-5.1,3.6-7.9,8.1-7.9
	c1.7,0,3.1,0.4,3.7,0.7L56,16.7c-0.7-0.3-1.6-0.6-2.8-0.6c-2.7,0-4.7,1.6-4.7,4.9c0,3,1.8,4.9,4.8,4.9c1,0,2.1-0.2,2.8-0.5
	L56.5,28.1z"/>
<path id="XMLID_26_" class="st0" d="M71.7,20.9c0,4.9-3,7.8-7.3,7.8c-4.4,0-7-3.3-7-7.6c0-4.5,2.8-7.8,7.2-7.8
	C69.2,13.4,71.7,16.8,71.7,20.9z M60.9,21.1c0,2.9,1.4,5,3.6,5c2.3,0,3.6-2.2,3.6-5c0-2.7-1.3-5-3.6-5
	C62.3,16.1,60.9,18.2,60.9,21.1z"/>
<path id="XMLID_31_" class="st0" d="M86.4,22.8c-0.1-1.8-0.1-3.9-0.1-6.1h-0.1c-0.5,1.9-1.1,4-1.7,5.8l-1.8,5.8h-2.6l-1.6-5.8
	c-0.5-1.7-1-3.9-1.3-5.8h0c-0.1,2-0.2,4.3-0.3,6.2l-0.3,5.6h-3.1l0.9-14.9H79l1.5,5c0.5,1.7,0.9,3.6,1.3,5.3h0.1
	c0.4-1.7,0.9-3.7,1.4-5.3l1.6-4.9h4.4L90,28.5h-3.3L86.4,22.8z"/>
<path id="XMLID_33_" class="st0" d="M92.5,13.8c1-0.2,2.5-0.3,4.5-0.3c2.1,0,3.6,0.4,4.5,1.2c0.9,0.8,1.6,2,1.6,3.4
	c0,1.5-0.5,2.7-1.4,3.5c-1.1,1.1-2.8,1.6-4.8,1.6c-0.4,0-0.8,0-1.1-0.1v5.3h-3.3V13.8z M95.9,20.6c0.3,0.1,0.6,0.1,1.1,0.1
	c1.8,0,2.9-0.9,2.9-2.4c0-1.4-0.9-2.2-2.6-2.2c-0.7,0-1.1,0.1-1.4,0.1V20.6z"/>
<path id="XMLID_36_" class="st0" d="M107.5,24.7l-1.1,3.8h-3.5l4.5-14.9h4.4l4.6,14.9h-3.6l-1.1-3.8H107.5z M111.3,22.2l-0.9-3.2
	c-0.3-0.9-0.5-2-0.7-2.9h0c-0.2,0.9-0.4,2-0.7,2.9l-0.9,3.2H111.3z"/>
<path id="XMLID_77_" class="st0" d="M118.5,28.5V13.6h3.9l3.1,5.4c0.9,1.6,1.8,3.4,2.4,5.1h0.1c-0.2-2-0.3-4-0.3-6.2v-4.3h3.1v14.9
	h-3.5l-3.2-5.7c-0.9-1.6-1.9-3.5-2.6-5.2l-0.1,0c0.1,2,0.1,4.1,0.1,6.5v4.5H118.5z"/>
<path id="XMLID_79_" class="st0" d="M136.8,28.5v-6.1l-4.7-8.8h3.8l1.5,3.6c0.5,1.1,0.8,1.9,1.1,2.8h0c0.3-0.9,0.7-1.8,1.1-2.8
	l1.5-3.6h3.8l-4.9,8.7v6.2H136.8z"/>
<path id="XMLID_81_" class="st0" d="M151.1,28.5V13.6h3.9l3.1,5.4c0.9,1.6,1.8,3.4,2.4,5.1h0.1c-0.2-2-0.3-4-0.3-6.2v-4.3h3.1v14.9
	h-3.5l-3.2-5.7c-0.9-1.6-1.9-3.5-2.6-5.2l-0.1,0c0.1,2,0.1,4.1,0.1,6.5v4.5H151.1z"/>
<path id="XMLID_83_" class="st0" d="M169.7,24.7l-1.1,3.8h-3.5l4.5-14.9h4.4l4.6,14.9h-3.6l-1.1-3.8H169.7z M173.5,22.2l-0.9-3.2
	c-0.3-0.9-0.5-2-0.7-2.9h0c-0.2,0.9-0.4,2-0.7,2.9l-0.9,3.2H173.5z"/>
<path id="XMLID_86_" class="st0" d="M193.3,22.8c-0.1-1.8-0.1-3.9-0.1-6.1h-0.1c-0.5,1.9-1.1,4-1.7,5.8l-1.8,5.8H187l-1.6-5.8
	c-0.5-1.7-1-3.9-1.3-5.8h0c-0.1,2-0.2,4.3-0.3,6.2l-0.3,5.6h-3.1l0.9-14.9h4.5l1.5,5c0.5,1.7,0.9,3.6,1.3,5.3h0.1
	c0.4-1.7,0.9-3.7,1.4-5.3l1.6-4.9h4.4l0.8,14.9h-3.3L193.3,22.8z"/>
<path id="XMLID_88_" class="st0" d="M208.2,22.2h-5.5v3.5h6.1v2.8h-9.5V13.6h9.2v2.8h-5.8v3.1h5.5V22.2z"/>
</svg>
